<?xml version="1.0" encoding="UTF-8"?>
<svg width="40px" height="40px" viewBox="0 0 40 40" version="1.1" xmlns="http://www.w3.org/2000/svg" xmlns:xlink="http://www.w3.org/1999/xlink">
    <!-- Generator: Sketch 52.5 (67469) - http://www.bohemiancoding.com/sketch -->
    <title>Oval 39 Copy 4@2x</title>
    <desc>Created with Sketch.</desc>
    <g id="web" stroke="none" stroke-width="1" fill="none" fill-rule="evenodd">
        <g id="kim登录" transform="translate(-922.000000, -494.000000)" fill="#F4A525">
            <path d="M942.5,534 C930.954305,534 922,525.045695 922,514.5 C922,502.954305 930.954305,494 942.5,494 C953.045695,494 962,502.954305 962,514.5 C962,525.045695 953.045695,534 942.5,534 Z M940.287759,503.459016 L940.792608,519.513944 C940.810104,520.070344 941.272912,520.521739 941.826305,520.521739 L942.185014,520.521739 C942.731465,520.521739 943.200925,520.070534 943.218075,519.513944 L943.712784,503.459016 C943.732863,502.807381 943.210488,502.26087 942.545332,502.26087 L941.454454,502.26087 C940.796899,502.26087 940.266952,502.797298 940.287759,503.459016 Z M940.695652,524.131564 L940.695652,524.738001 C940.695652,525.28473 941.143873,525.73913 941.696781,525.73913 L942.303219,525.73913 C942.849948,525.73913 943.304348,525.29091 943.304348,524.738001 L943.304348,524.131564 C943.304348,523.584835 942.856127,523.130435 942.303219,523.130435 L941.696781,523.130435 C941.150052,523.130435 940.695652,523.578656 940.695652,524.131564 Z" id="Oval-39-Copy-4"></path>
        </g>
    </g>
</svg>